<mxfile host="app.diagrams.net" modified="2023-03-13T09:47:18.524Z" agent="5.0 (X11; Linux x86_64) AppleWebKit/537.36 (KHTML, like Gecko) Chrome/110.0.0.0 Safari/537.36" etag="oVFnA5D5_Rg7tJUuOyWh" version="21.0.6" type="github">
  <diagram id="R2lEEEUBdFMjLlhIrx00" name="Page-1">
    <mxGraphModel dx="1362" dy="775" grid="1" gridSize="10" guides="1" tooltips="1" connect="1" arrows="1" fold="1" page="1" pageScale="1" pageWidth="850" pageHeight="1100" math="0" shadow="0" extFonts="Permanent Marker^https://fonts.googleapis.com/css?family=Permanent+Marker">
      <root>
        <mxCell id="0" />
        <mxCell id="1" parent="0" />
        <mxCell id="9TzLENcXXa62B2hy-4op-23" value="Person" style="swimlane;childLayout=stackLayout;horizontal=1;startSize=50;horizontalStack=0;rounded=1;fontSize=14;fontStyle=0;strokeWidth=2;resizeParent=0;resizeLast=1;shadow=0;dashed=0;align=center;arcSize=4;whiteSpace=wrap;html=1;" vertex="1" parent="1">
          <mxGeometry x="310" y="150" width="140" height="140" as="geometry" />
        </mxCell>
        <mxCell id="9TzLENcXXa62B2hy-4op-24" value="+ Name&lt;br&gt;+ First Name&lt;br&gt;+ Birth Date&lt;br&gt;+ Photo URL&lt;br&gt;+ Description" style="align=left;strokeColor=none;fillColor=none;spacingLeft=4;fontSize=12;verticalAlign=top;resizable=0;rotatable=0;part=1;html=1;" vertex="1" parent="9TzLENcXXa62B2hy-4op-23">
          <mxGeometry y="50" width="140" height="90" as="geometry" />
        </mxCell>
        <mxCell id="9TzLENcXXa62B2hy-4op-28" value="Finder" style="swimlane;childLayout=stackLayout;horizontal=1;startSize=50;horizontalStack=0;rounded=1;fontSize=14;fontStyle=0;strokeWidth=2;resizeParent=0;resizeLast=1;shadow=0;dashed=0;align=center;arcSize=4;whiteSpace=wrap;html=1;" vertex="1" parent="1">
          <mxGeometry x="50" y="260" width="160" height="140" as="geometry" />
        </mxCell>
        <mxCell id="9TzLENcXXa62B2hy-4op-29" value="+ Name&lt;br&gt;+ First Name&lt;br&gt;+ phone&lt;br&gt;+ email&lt;br&gt;+ information" style="align=left;strokeColor=none;fillColor=none;spacingLeft=4;fontSize=12;verticalAlign=top;resizable=0;rotatable=0;part=1;html=1;" vertex="1" parent="9TzLENcXXa62B2hy-4op-28">
          <mxGeometry y="50" width="160" height="90" as="geometry" />
        </mxCell>
        <mxCell id="9TzLENcXXa62B2hy-4op-34" value="" style="edgeStyle=entityRelationEdgeStyle;fontSize=12;html=1;endArrow=ERmandOne;startArrow=ERmandOne;rounded=0;entryX=0;entryY=0;entryDx=0;entryDy=0;" edge="1" parent="1" target="9TzLENcXXa62B2hy-4op-24">
          <mxGeometry width="100" height="100" relative="1" as="geometry">
            <mxPoint x="210" y="330" as="sourcePoint" />
            <mxPoint x="310" y="230" as="targetPoint" />
          </mxGeometry>
        </mxCell>
      </root>
    </mxGraphModel>
  </diagram>
</mxfile>
